<?xml version="1.0" encoding="UTF-8" standalone="no"?>
<!-- Created with Inkscape (http://www.inkscape.org/) -->

<svg
   width="123.60042mm"
   height="147.52676mm"
   viewBox="0 0 467.1512 557.58148"
   version="1.1"
   id="svg5"
   xml:space="preserve"
   sodipodi:docname="logo preta com fundo preto.svg"
   inkscape:version="1.2.2 (732a01da63, 2022-12-09)"
   xmlns:inkscape="http://www.inkscape.org/namespaces/inkscape"
   xmlns:sodipodi="http://sodipodi.sourceforge.net/DTD/sodipodi-0.dtd"
   xmlns:xlink="http://www.w3.org/1999/xlink"
   xmlns="http://www.w3.org/2000/svg"
   xmlns:svg="http://www.w3.org/2000/svg"><sodipodi:namedview
     id="namedview7"
     pagecolor="#ffffff"
     bordercolor="#666666"
     borderopacity="1.0"
     inkscape:showpageshadow="2"
     inkscape:pageopacity="0.0"
     inkscape:pagecheckerboard="0"
     inkscape:deskcolor="#d1d1d1"
     inkscape:document-units="mm"
     showgrid="false"
     inkscape:zoom="0.82772563"
     inkscape:cx="273.03733"
     inkscape:cy="533.99337"
     inkscape:window-width="1600"
     inkscape:window-height="837"
     inkscape:window-x="-8"
     inkscape:window-y="-8"
     inkscape:window-maximized="1"
     inkscape:current-layer="layer5" /><defs
     id="defs2"><linearGradient
       id="linearGradient16649"
       inkscape:swatch="solid"><stop
         style="stop-color:#ffffff;stop-opacity:1;"
         offset="0"
         id="stop16647" /></linearGradient><linearGradient
       id="linearGradient16296"
       inkscape:swatch="solid"><stop
         style="stop-color:#ffffff;stop-opacity:1;"
         offset="0"
         id="stop16294" /></linearGradient><linearGradient
       id="linearGradient16290"
       inkscape:swatch="solid"><stop
         style="stop-color:#ffffff;stop-opacity:1;"
         offset="0"
         id="stop16288" /></linearGradient><linearGradient
       id="linearGradient15558"
       inkscape:swatch="solid"><stop
         style="stop-color:#ffffff;stop-opacity:1;"
         offset="0"
         id="stop15556" /></linearGradient><linearGradient
       id="linearGradient15544"
       inkscape:swatch="solid"><stop
         style="stop-color:#ffffff;stop-opacity:1;"
         offset="0"
         id="stop15542" /></linearGradient><linearGradient
       inkscape:collect="always"
       xlink:href="#linearGradient15544"
       id="linearGradient16298"
       x1="233.57237"
       y1="371.18399"
       x2="519.90027"
       y2="371.18399"
       gradientUnits="userSpaceOnUse"
       gradientTransform="matrix(1.0255448,0,0,1.0255448,-3.6157245,2.5994693)" /></defs><g
     inkscape:groupmode="layer"
     id="layer2"
     inkscape:label="mao 1"
     style="display:inline"
     transform="translate(-159.06657,-237.75734)"><path
       style="display:inline;fill:#ffffff;fill-opacity:0.996212;stroke:#ffffff;stroke-width:6.57527;stroke-opacity:1"
       d="m 425.87337,790.53432 c -0.16983,-0.16983 -0.19628,-13.82925 -0.0588,-30.35426 0.28366,-34.09151 0.42272,-35.30355 5.14411,-44.8345 2.43331,-4.91207 3.42662,-6.03439 21.92911,-24.77723 10.65919,-10.79766 32.5977,-33.08766 48.75225,-49.53332 16.15454,-16.44567 34.24425,-34.5759 40.19936,-40.28942 10.50447,-10.0783 10.91866,-10.4003 13.8844,-10.79371 5.95011,-0.78932 14.1973,2.2692 18.95922,7.03112 3.54305,3.54306 5.03012,7.94527 4.57964,13.55728 -0.61626,7.67729 -1.06558,8.27811 -31.94021,42.71015 -26.42534,29.47009 -28.51429,31.96257 -31.27617,37.3179 -3.69901,7.17241 -4.89234,11.17361 -4.89234,16.40388 0,4.0099 0.0447,4.12735 1.96321,5.15999 2.90022,1.56101 9.76419,1.47501 12.53435,-0.15706 l 2.11423,-1.24561 0.008,-4.79503 c 0.0142,-8.87323 1.8741,-11.41155 29.6936,-40.52482 24.14133,-25.26404 24.7337,-25.94162 33.10119,-37.86261 l 5.86334,-8.3534 -0.20324,-9.50087 -0.20324,-9.50087 -2.31204,-4.67509 c -2.86741,-5.79806 -7.79742,-11.16744 -13.93055,-15.17205 l -4.59764,-3.00202 v -51.44601 -51.446 l 2.44779,-3.66559 c 4.88592,-7.31672 10.62921,-10.95236 19.21989,-12.16665 9.33997,-1.32019 17.14057,2.14534 23.31374,10.35747 l 2.76136,3.67342 -0.16184,79.5113 -0.16184,79.51129 -2.44979,7.01154 c -2.86336,8.19523 -6.41938,14.6948 -10.75801,19.66307 -1.70608,1.95366 -23.48915,25.54116 -48.40682,52.41667 -24.91768,26.8755 -45.48164,49.43204 -45.69771,50.12565 -0.21606,0.69359 -0.41993,7.71703 -0.45304,15.60763 l -0.0602,14.34654 h -44.29843 c -24.36395,0 -44.43705,-0.13895 -44.60688,-0.30878 z"
       id="path6150" /><path
       style="display:inline;fill:#ffffff;fill-opacity:0.996212;stroke:#ffffff;stroke-width:6.57527;stroke-opacity:1"
       d="m 359.41101,791.74246 c 0.16983,-0.16983 0.19628,-13.82925 0.0588,-30.35426 -0.28366,-34.09151 -0.42272,-35.30355 -5.14411,-44.8345 -2.43331,-4.91207 -3.42662,-6.03439 -21.92911,-24.77723 -10.65919,-10.79766 -32.5977,-33.08766 -48.75225,-49.53332 -16.15454,-16.44567 -34.24425,-34.5759 -40.19936,-40.28942 -10.50447,-10.0783 -10.91866,-10.4003 -13.8844,-10.79371 -5.95011,-0.78932 -14.1973,2.2692 -18.95922,7.03112 -3.54305,3.54306 -5.03012,7.94527 -4.57964,13.55728 0.61626,7.67729 1.06558,8.27811 31.94021,42.71015 26.42534,29.47009 28.51429,31.96257 31.27617,37.3179 3.69901,7.17241 4.89234,11.17361 4.89234,16.40388 0,4.0099 -0.0447,4.12735 -1.96321,5.15999 -2.90022,1.56101 -9.76419,1.47501 -12.53435,-0.15706 l -2.11423,-1.24561 -0.008,-4.79503 c -0.0142,-8.87323 -1.8741,-11.41155 -29.6936,-40.52482 -24.14133,-25.26404 -24.7337,-25.94162 -33.10119,-37.86261 l -5.86334,-8.3534 0.20324,-9.50087 0.20324,-9.50087 2.31204,-4.67509 c 2.86741,-5.79806 7.79742,-11.16744 13.93055,-15.17205 l 4.59764,-3.00202 v -51.44601 -51.446 l -2.44779,-3.66559 c -4.88592,-7.31672 -10.62921,-10.95236 -19.21989,-12.16665 -9.33997,-1.32019 -17.14057,2.14534 -23.31374,10.35747 l -2.76136,3.67342 0.16184,79.5113 0.16184,79.51129 2.44979,7.01154 c 2.86336,8.19523 6.41938,14.6948 10.75801,19.66307 1.70608,1.95366 23.48915,25.54116 48.40682,52.41667 24.91768,26.8755 45.48164,49.43204 45.69771,50.12565 0.21606,0.69359 0.41993,7.71703 0.45304,15.60763 l 0.0602,14.34654 h 44.29843 c 24.36395,0 44.43705,-0.13895 44.60688,-0.30878 z"
       id="path6150-6" /></g><g
     inkscape:groupmode="layer"
     id="layer4"
     inkscape:label="sinal"
     style="display:inline"
     transform="translate(-159.06657,-237.75734)"><path
       style="fill:#ffffff;stroke:url(#linearGradient16298);stroke-width:1.02554px;stroke-linecap:butt;stroke-linejoin:miter;stroke-opacity:1"
       d="m 327.54976,324.12785 v -85.85772 h 113.01679 l 0.87609,86.73381 h 87.60992 v 116.5212 l -88.48601,-1.75221 0.87609,88.48602 -114.86718,-0.32718 -0.30975,-89.82687 -89.82686,1.239 0.61949,-113.67745 z"
       id="path1812" /></g></svg>
